<svg width="120" height="40" viewBox="0 0 120 40" fill="none" xmlns="http://www.w3.org/2000/svg">
  <rect width="40" height="40" rx="8" fill="#3b82f6"/>
  <path d="M10 10H30V14H10V10Z" fill="white"/>
  <path d="M10 18H30V22H10V18Z" fill="white"/>
  <path d="M10 26H30V30H10V26Z" fill="white"/>
  <path d="M45 12H48V28H45V12Z" fill="#3b82f6"/>
  <path d="M52 12H55L62 22V12H65V28H62L55 18V28H52V12Z" fill="#3b82f6"/>
  <path d="M68 12H78C79.1 12 80 12.4 80.7 13.1C81.4 13.8 81.8 14.7 81.8 15.8V24.2C81.8 25.3 81.4 26.2 80.7 26.9C80 27.6 79.1 28 78 28H68V12ZM77.8 25C78.1 25 78.4 24.9 78.6 24.6C78.8 24.4 78.9 24.1 78.9 23.8V16.2C78.9 15.9 78.8 15.6 78.6 15.4C78.4 15.1 78.1 15 77.8 15H71V25H77.8Z" fill="#3b82f6"/>
  <path d="M84 12H94C95.1 12 96 12.4 96.7 13.1C97.4 13.8 97.8 14.7 97.8 15.8V24.2C97.8 25.3 97.4 26.2 96.7 26.9C96 27.6 95.1 28 94 28H84V12ZM93.8 25C94.1 25 94.4 24.9 94.6 24.6C94.8 24.4 94.9 24.1 94.9 23.8V16.2C94.9 15.9 94.8 15.6 94.6 15.4C94.4 15.1 94.1 15 93.8 15H87V25H93.8Z" fill="#3b82f6"/>
  <path d="M100 12H103V25H111V28H100V12Z" fill="#3b82f6"/>
  <path d="M113 12H116V25H124V28H113V12Z" fill="#3b82f6"/>
</svg>